name C:\Users\u0101727\Documents\MyRepositories\upper-imu-dc\Results\main_tracking\Case_50\kinematics_filtered.mot
datacolumns 10
datarows 42
range 3.25000000 3.66000000
endheader 
time	clav_prot	clav_elev	scapula_abduction	scapula_elevation	scapula_upward_rot	scapula_winging	plane_elv	shoulder_elv	axial_rot	
          3.25000000	        -44.75218264	          8.31964461	         -2.32972803	         -2.56857718	         80.51246691	        -12.40892698	         27.64544325	         87.49716572	         -4.21320458	
          3.26000000	        -44.74678461	          8.30458062	         -2.28362743	         -2.57387382	         80.55581881	        -12.39474161	         27.81247030	         87.45999883	         -4.19880694	
          3.27000000	        -44.74075521	          8.29158702	         -2.23837900	         -2.57789212	         80.59737607	        -12.38099324	         27.97506906	         87.42382986	         -4.18785709	
          3.28000000	        -44.73392392	          8.28063227	         -2.19377544	         -2.58065252	         80.63702285	        -12.36758272	         28.13354564	         87.38907418	         -4.18037807	
          3.29000000	        -44.72612448	          8.27166714	         -2.14962734	         -2.58218991	         80.67462351	        -12.35441139	         28.28820797	         87.35612437	         -4.17628697	
          3.30000000	        -44.71719694	          8.26462536	         -2.10576023	         -2.58255246	         80.71003097	        -12.34138137	         28.43936148	         87.32533939	         -4.17539512	
          3.31000000	        -44.70698920	          8.25942488	         -2.06201108	         -2.58180005	         80.74309530	        -12.32839574	         28.58730522	         87.29703569	         -4.17741149	
          3.32000000	        -44.69535830	          8.25596970	         -2.01822424	         -2.58000217	         80.77367226	        -12.31535862	         28.73232832	         87.27148076	         -4.18194915	
          3.33000000	        -44.68217120	          8.25415247	         -1.97424739	         -2.57723538	         80.80163128	        -12.30217532	         28.87470658	         87.24888938	         -4.18853498	
          3.34000000	        -44.66730543	          8.25385756	         -1.92992768	         -2.57358054	         80.82686288	        -12.28875257	         29.01469923	         87.22942264	         -4.19662233	
          3.35000000	        -44.65064946	          8.25496464	         -1.88510839	         -2.56911960	         80.84928501	        -12.27499885	         29.15254561	         87.21318930	         -4.20560636	
          3.36000000	        -44.63210315	          8.25735272	         -1.83962655	         -2.56393243	         80.86884849	        -12.26082509	         29.28846194	         87.20024930	         -4.21484171	
          3.37000000	        -44.61157824	          8.26090418	         -1.79331156	         -2.55809355	         80.88554118	        -12.24614552	         29.42263815	         87.19061861	         -4.22366196	
          3.38000000	        -44.58899926	          8.26550872	         -1.74598526	         -2.55166922	         80.89939103	        -12.23087896	         29.55523499	         87.18427495	         -4.23140011	
          3.39000000	        -44.56430468	          8.27106673	         -1.69746350	         -2.54471507	         80.91046784	        -12.21495022	         29.68638158	         87.18116384	         -4.23740942	
          3.40000000	        -44.53744874	          8.27749175	         -1.64755924	         -2.53727446	         80.91888375	        -12.19829192	         29.81617358	         87.18120437	         -4.24108365	
          3.41000000	        -44.50840369	          8.28471161	         -1.59608733	         -2.52937804	         80.92479238	        -12.18084631	         29.94467213	         87.18429441	         -4.24187614	
          3.42000000	        -44.47716259	          8.29266804	         -1.54287066	         -2.52104441	         80.92838679	        -12.16256725	         30.07190349	         87.19031525	         -4.23931681	
          3.43000000	        -44.44374261	          8.30131443	         -1.48774768	         -2.51228229	         80.92989602	        -12.14342205	         30.19785955	         87.19913535	         -4.23302654	
          3.44000000	        -44.40818851	          8.31061181	         -1.43058098	         -2.50309409	         80.92958042	        -12.12339325	         30.32249874	         87.21061357	         -4.22272835	
          3.45000000	        -44.37057640	          8.32052299	         -1.37126661	         -2.49348079	         80.92772575	        -12.10248008	         30.44574756	         87.22460193	         -4.20825494	
          3.46000000	        -44.33101750	          8.33100528	         -1.30974400	         -2.48344799	         80.92463620	        -12.08069967	         30.56750222	         87.24094796	         -4.18955232	
          3.47000000	        -44.28966160	          8.34200220	         -1.24600589	         -2.47301263	         80.92062661	        -12.05808808	         30.68763037	         87.25949683	         -4.16667949	
          3.48000000	        -44.24670036	          8.35343506	         -1.18010802	         -2.46220994	         80.91601428	        -12.03470093	         30.80597272	         87.28009315	         -4.13980419	
          3.49000000	        -44.20236977	          8.36519504	         -1.11217777	         -2.45109983	         80.91111100	        -12.01061390	         30.92234437	         87.30258232	         -4.10919542	
          3.50000000	        -44.15695179	          8.37713691	         -1.04242101	         -2.43977211	         80.90621582	        -11.98592290	         31.03653546	         87.32681126	         -4.07521330	
          3.51000000	        -44.11077448	          8.38907508	         -0.97112598	         -2.42834986	         80.90160934	        -11.96074372	         31.14831109	         87.35262846	         -4.03829717	
          3.52000000	        -44.06421037	          8.40078278	         -0.89866338	         -2.41699018	         80.89754994	        -11.93521121	         31.25741017	         87.37988342	         -3.99895278	
          3.53000000	        -44.01767241	          8.41199474	         -0.82548164	         -2.40588232	         80.89427242	        -11.90947756	         31.36354309	         87.40842545	         -3.95773958	
          3.54000000	        -43.97160738	          8.42241363	         -0.75209684	         -2.39524258	         80.89198876	        -11.88370967	         31.46638838	         87.43810249	         -3.91525851	
          3.55000000	        -43.92648658	          8.43172012	         -0.67907750	         -2.38530649	         80.89089102	        -11.85808556	         31.56558862	         87.46876003	         -3.87214091	
          3.56000000	        -43.88279397	          8.43958617	         -0.60702479	         -2.37631837	         80.89115545	        -11.83278992	         31.66074620	         87.50024081	         -3.82903853	
          3.57000000	        -43.84101231	          8.44569094	         -0.53654957	         -2.36851881	         80.89294706	        -11.80800911	         31.75141970	         87.53238550	         -3.78661477	
          3.58000000	        -43.80160811	          8.44973847	         -0.46824800	         -2.36213099	         80.89642388	        -11.78392597	         31.83712173	         87.56503452	         -3.74553688	
          3.59000000	        -43.76501627	          8.45147622	         -0.40267793	         -2.35734651	         80.90173977	        -11.76071495	         31.91731915	         87.59803106	         -3.70646894	
          3.60000000	        -43.73162550	          8.45071302	         -0.34033789	         -2.35431180	         80.90904521	        -11.73853803	         31.99143638	         87.63122507	         -3.67006524	
          3.61000000	        -43.70176555	          8.44733526	         -0.28165051	         -2.35311624	         80.91848568	        -11.71754155	         32.05886255	         87.66447794	         -3.63696390	
          3.62000000	        -43.67569696	          8.44131961	         -0.22695151	         -2.35378308	         80.93019728	        -11.69785431	         32.11896267	         87.69766746	         -3.60778048	
          3.63000000	        -43.65360422	          8.43274094	         -0.17648491	         -2.35626412	         80.94430001	        -11.67958677	         32.17109313	         87.73069266	         -3.58310135	
          3.64000000	        -43.63559262	          8.42177421	         -0.13040453	         -2.36043914	         80.96088916	        -11.66283128	         32.21462109	         87.76347799	         -3.56347692	
          3.65000000	        -43.62168909	          8.40868942	         -0.08878148	         -2.36612029	         80.98002565	        -11.64766304	         32.24894723	         87.79597644	         -3.54941467	
          3.66000000	        -43.61184708	          8.39383965	         -0.05161661	         -2.37306176	         81.00172628	        -11.63414169	         32.27353064	         87.82817113	         -3.54137211	
